<svg xmlns="http://www.w3.org/2000/svg" viewBox="0 0 3032 3135" width="3032" height="3135">
	<defs>
		<clipPath clipPathUnits="userSpaceOnUse" id="cp1">
			<path d="M-1284 -1342L4316 -1342L4316 4258L-1284 4258Z" />
		</clipPath>
		<clipPath clipPathUnits="userSpaceOnUse" id="cp2">
			<path d="M779 163.36C782.31 168.61 784.48 174.62 785.21 180.99C786.33 190.75 783.99 200.42 778.84 208.44C782.35 213.87 784.61 220.11 785.33 226.72C786.36 236.27 784.09 245.75 779.09 253.67C782.71 259.21 785.03 265.6 785.72 272.36C786.69 281.72 784.48 291.04 779.62 298.87C783.36 304.52 785.72 311.06 786.39 317.96C787.29 327.18 785.12 336.35 780.35 344.1C784.18 349.85 786.57 356.51 787.22 363.52C788.06 372.61 785.92 381.66 781.22 389.33C790.23 402.77 790.8 420.51 782.2 434.58C791.26 448.01 791.85 465.73 783.3 479.83C792.38 493.26 792.97 510.98 784.43 525.08C793.55 538.51 794.17 556.21 785.66 570.32C794.77 583.76 795.39 601.45 786.91 615.55C796.05 628.99 796.7 646.7 788.23 660.82C797.36 674.18 798.03 691.72 789.72 705.82C789.67 705.9 789.63 705.97 789.59 706.04C798.56 719.19 799.36 736.36 791.49 750.33C791.28 750.71 791.11 751.03 790.98 751.31C799.82 764.24 800.73 781.05 793.29 794.89C792.86 795.7 792.61 796.31 792.47 796.72C794.13 798.95 800.85 804.91 816.87 809.46C836.97 815.17 862.33 816.08 888.28 812.02C914.23 807.96 938.1 799.36 955.5 787.79C969.37 778.57 973.94 770.83 974.85 768.21C974.59 767.86 974.17 767.36 973.5 766.72C962.19 755.81 957.94 739.52 962.4 724.51C962.2 724.29 961.94 724.03 961.62 723.73C949.86 712.83 945.38 696.24 949.91 680.98C949.85 680.92 949.79 680.87 949.72 680.81C937.51 669.92 932.79 653.01 937.4 637.5C925 626.62 920.2 609.58 924.84 593.98C912.45 583.13 907.63 566.11 912.22 550.53C899.82 539.68 895 522.65 899.59 507.07C887.15 496.25 882.31 479.2 886.86 463.64C874.41 452.83 869.56 435.76 874.09 420.21C861.61 409.43 856.73 392.37 861.21 376.83C854.4 370.96 849.59 363 847.62 354.08C846.1 347.2 846.34 340.13 848.24 333.49C841.33 327.57 836.46 319.51 834.5 310.46C833.03 303.67 833.28 296.72 835.12 290.19C828.1 284.23 823.15 276.05 821.21 266.83C819.8 260.17 820.05 253.36 821.82 246.97C814.66 240.95 809.6 232.63 807.68 223.23C806.34 216.71 806.59 210.08 808.27 203.85C800.93 197.77 795.75 189.28 793.83 179.65C792.58 173.35 792.81 166.97 794.37 160.95C790.56 157.89 787.32 154.19 784.78 150C783.64 154.76 781.68 159.28 779 163.36Z" />
		</clipPath>
	</defs>
	<style>
		tspan { white-space:pre }
		.shp0 { fill: #333333 } 
		.shp1 { fill: #a935ff } 
		.shp2 { fill: #4493ff } 
		.shp3 { fill: #1dfffb } 
		.shp4 { fill: #acff31 } 
		.shp5 { fill: #ffb622 } 
		.shp6 { fill: #ededed } 
		.shp7 { fill: #d69831 } 
		.shp8 { fill: #ff733d } 
		.shp9 { opacity: 0.102;fill: #000000 } 
		.shp10 { opacity: 0.302;fill: #000000 } 
		.shp11 { fill: #ff7353 } 
		.shp12 { fill: #ff3fa6 } 
		.shp13 { fill: #ffffff } 
	</style>
	<g id="Page 1" clip-path="url(#cp1)">
		<path id="Path 7" fill-rule="evenodd" class="shp0" d="M2984.64 1329.2C2930.7 1468.31 2831.75 1597.93 2698.47 1704.05C2587.56 1792.37 2452.38 1866.15 2285.22 1929.61C2277.41 1932.58 2269.57 1935.51 2261.71 1938.45C2251.38 1942.31 2240.99 1946.21 2230.62 1950.19C2276.1 2030.29 2298.08 2116.44 2294.28 2200.32C2290.97 2273.41 2268.89 2344.1 2247.55 2412.46C2221.32 2496.47 2196.54 2575.81 2204.19 2658.17C2208.69 2706.7 2224.27 2752.85 2240.75 2801.71C2246.21 2817.88 2251.85 2834.59 2256.99 2851.23C2292.67 2966.82 2280.43 3028.47 2268.12 3064.78C2265.33 3073.01 2257.61 3078.54 2248.92 3078.54L2101.25 3078.54C2091.02 3078.54 2082.39 3070.92 2081.13 3060.77C2075.79 3017.79 2094.67 2973.6 2127.91 2948.23C2116.55 2902.41 2087.09 2864.03 2036.14 2828.29C2024.53 2820.15 2012.3 2812.05 2000.48 2804.23C1957.95 2776.07 1913.96 2746.95 1881.32 2705.05C1853.29 2669.08 1836.49 2627.4 1825.84 2584.77C1823.14 2609.1 1822.51 2633.5 1824.8 2658.17C1829.3 2706.7 1844.88 2752.85 1861.37 2801.71C1866.82 2817.88 1872.46 2834.59 1877.6 2851.23C1913.29 2966.82 1901.05 3028.47 1888.74 3064.78C1885.95 3073.01 1878.22 3078.54 1869.54 3078.54L1721.87 3078.54C1711.63 3078.54 1703 3070.92 1701.74 3060.77C1696.41 3017.79 1715.29 2973.6 1748.53 2948.23C1737.16 2902.41 1707.7 2864.03 1656.76 2828.29C1645.14 2820.15 1632.92 2812.06 1621.1 2804.23C1578.56 2776.07 1534.58 2746.95 1501.93 2705.05C1489.14 2688.64 1478.71 2671.1 1470.09 2652.67C1468.86 2662.97 1467.55 2673.34 1466.15 2683.78C1443.81 2850.23 1402.95 3007.38 1356.85 3104.17C1355.03 3107.98 1352.07 3111.13 1348.37 3113.18C1322.54 3127.5 1292.71 3134.65 1261.51 3134.65C1228.45 3134.65 1193.84 3126.63 1160.78 3110.65C1153.56 3107.15 1149.07 3099.73 1149.34 3091.71C1150.42 3059.38 1171.89 3028.62 1199.52 3014.55C1131.65 2895.35 1079.35 2766.51 1044.36 2633.36C1026.79 2643.74 1008.96 2653.83 990.85 2663.57C987.88 2665.17 984.57 2666 981.24 2666C979.65 2666 978.05 2665.81 976.48 2665.43C953.1 2659.78 930.66 2651.74 909.06 2642.03C910.78 2688.71 909.35 2735.6 904.68 2782.47C893.32 2896.5 863.54 3004.74 816.17 3104.17C814.35 3107.98 811.39 3111.13 807.7 3113.18C781.87 3127.5 752.04 3134.65 720.83 3134.65C687.77 3134.65 653.16 3126.63 620.1 3110.65C612.88 3107.15 608.39 3099.73 608.66 3091.71C609.74 3059.27 631.36 3028.41 659.12 3014.41C553.86 2819.31 511.87 2518.2 489.38 2303.03C423.7 2217.94 386.7 2124.45 382.82 2035.18L327.5 2076.24C320.04 2081.77 309.79 2081.54 302.59 2075.67C295.4 2069.8 293.11 2059.8 297.04 2051.39L323.38 1994.92L283.76 2021.85C276.19 2027 266.11 2026.43 259.16 2020.48C252.22 2014.52 250.12 2004.65 254.04 1996.38C292.22 1916.01 339.81 1839.79 395.17 1769.72C388.62 1764.69 382.12 1759.58 375.78 1754.3C315.83 1704.37 266.2 1643.46 228.28 1573.27C204.89 1529.98 186.1 1484.68 172.24 1438.25C151.57 1454.71 133.28 1473.87 117.68 1495.47C112.16 1503.11 102.1 1505.94 93.41 1502.29C84.71 1498.65 79.68 1489.5 81.25 1480.2L96.11 1392.56C80.13 1406.12 65.26 1420.96 51.62 1436.96C45.7 1443.91 35.85 1446.05 27.58 1442.17C19.31 1438.3 14.65 1429.37 16.21 1420.36C24.82 1370.47 38.99 1322.04 58.51 1275.67L31.12 1292.89C23.41 1297.74 13.4 1296.84 6.67 1290.7C-0.07 1284.56 -1.88 1274.67 2.25 1266.54C84.65 1104.17 195.95 955.49 333.11 824.52C346.26 727.61 375.94 634.61 421.36 547.96C468.59 457.87 530.45 379.32 605.23 314.48C609.43 310.83 614.94 309.08 620.49 309.61C626.04 310.16 631.11 312.96 634.52 317.35C696.27 396.79 758.43 485.53 814.88 574.77C886.54 558.44 962.07 556.76 1034.29 569.99C1132.89 588.06 1216.1 617.13 1288.03 658.69C1376.9 557.26 1456.18 489.31 1536.61 445.51C1541.61 442.78 1547.53 442.29 1552.91 444.14C1558.29 446 1562.65 450.03 1564.91 455.25C1647.12 645.01 1675.07 854.12 1641.99 1030.44C1723.05 1167.96 1785.19 1307.09 1826.74 1444.06C1829.62 1453.55 1825.2 1463.74 1816.3 1468.13C1807.39 1472.52 1796.63 1469.82 1790.85 1461.75C1786.63 1455.86 1781.06 1450.88 1774.74 1447.16C1778.12 1499.75 1775.28 1552.57 1766.24 1604.57C1764.76 1613.06 1758.08 1619.69 1749.58 1621.1C1741.08 1622.51 1732.61 1618.4 1728.47 1610.84C1716.17 1588.36 1699.58 1568.55 1679.77 1552.52C1673.77 1572.95 1666.89 1593.1 1659.17 1612.93C1806.81 1634.55 1928.29 1676.3 2027.74 1739.33C2040.18 1747.22 2052.28 1755.57 2064.08 1764.28C2074.96 1748.57 2087.43 1733.42 2101.79 1719.28C2142.37 1679.3 2192.41 1652.7 2240.8 1626.98C2269.65 1611.65 2299.48 1595.79 2326.27 1577.51C2404.43 1524.17 2464.22 1446.15 2504 1345.61C2539.89 1254.86 2556.9 1150.73 2553.17 1044.49C2549.15 929.82 2522.62 845.38 2472.06 786.35C2403.27 706.05 2297.6 697.07 2239.15 734.81C2230.99 740.08 2220.25 738.83 2213.53 731.83C2206.8 724.83 2205.98 714.05 2211.57 706.11C2257.47 640.88 2323.63 591.32 2402.9 562.77C2479.64 535.13 2564.72 529.82 2642.46 547.8C2795.62 583.24 2929.28 702.41 2991.27 858.81C3047.73 1001.26 3045.31 1172.71 2984.64 1329.2ZM2187.82 1957.35C2143.55 1884.45 2080.69 1820.9 2006.03 1773.59C1913.96 1715.23 1801.33 1675.97 1664.55 1654.76C1710.96 1818.38 1696.34 1999.76 1620.34 2152.05C1616.91 2158.93 1609.88 2163.28 1602.2 2163.28L1602.17 2163.28C1594.47 2163.27 1587.45 2158.9 1584.03 2152.01L1581.39 2146.68L1537.17 2234.8C1532.98 2243.14 1523.64 2247.54 1514.54 2245.47C1505.43 2243.4 1498.92 2235.37 1498.77 2226.04L1498.53 2211.62C1488.43 2226.6 1477.96 2241.38 1467.19 2255.98C1482.78 2327.39 1487.25 2425.25 1480.6 2536.32C1518.5 2526.11 1555.97 2512.21 1592.21 2494.82C1675.3 2454.94 1747.92 2398.58 1802.22 2331.83C1807.44 2325.42 1816.03 2322.81 1823.93 2325.26C1831.83 2327.7 1837.46 2334.69 1838.15 2342.93L1846.3 2439.63C1852.81 2516.82 1860.91 2612.89 1913.3 2680.13C1941.88 2716.79 1981.22 2742.84 2022.87 2770.41C2034.91 2778.39 2047.37 2786.63 2059.43 2795.09C2123.57 2840.08 2159.92 2892.1 2170.55 2954.12C2172 2962.58 2167.96 2971.04 2160.47 2975.23C2138.42 2987.59 2123.65 3011.92 2121.14 3037.99L2233.83 3037.99C2242.2 3005.55 2246.12 2953.52 2218.24 2863.2C2213.25 2847.06 2207.7 2830.6 2202.33 2814.68C2185.82 2765.76 2168.75 2715.17 2163.8 2661.92C2155.41 2571.48 2182.57 2484.5 2208.84 2400.37C2229.41 2334.48 2250.69 2266.33 2253.77 2198.48C2257.43 2117.8 2234.62 2034.42 2187.82 1957.35ZM1808.29 2470.61C1807.43 2461.23 1806.65 2452.01 1805.89 2443.04L1801.72 2393.55C1748.41 2449.13 1682.84 2496.3 1609.76 2531.38C1569.72 2550.6 1528.23 2565.76 1486.24 2576.72C1495.88 2615.15 1510.41 2649.95 1533.92 2680.13C1562.49 2716.79 1601.84 2742.84 1643.49 2770.42C1655.53 2778.39 1667.98 2786.63 1680.04 2795.09C1744.19 2840.08 1780.53 2892.1 1791.16 2954.12C1792.61 2962.58 1788.58 2971.04 1781.09 2975.23C1759.03 2987.59 1744.27 3011.92 1741.76 3037.99L1854.45 3037.99C1862.82 3005.55 1866.74 2953.52 1838.85 2863.2C1833.87 2847.06 1828.31 2830.6 1822.94 2814.68C1806.44 2765.76 1789.36 2715.17 1784.42 2661.92C1778.34 2596.41 1790.92 2532.72 1808.29 2470.61ZM1433.95 2299.18C1337.32 2419.44 1217.85 2525.04 1080.54 2611.31C1116.72 2753.47 1173.12 2890.82 1247.56 3016.51C1251.22 3022.7 1251.33 3030.35 1247.87 3036.64C1244.39 3042.93 1237.86 3046.91 1230.68 3047.12C1215.29 3047.54 1198.7 3062.94 1192.44 3080.31C1238.35 3098.6 1285.86 3098.8 1323.09 3080.64C1404.81 2903.4 1467.82 2521.15 1433.95 2299.18ZM1500.28 2133.31C1504.93 2125.54 1514.17 2121.8 1522.92 2124.14C1531.49 2126.43 1537.55 2134.02 1537.94 2142.85L1563.37 2092.16C1566.81 2085.3 1573.83 2080.98 1581.49 2080.98L1581.54 2080.98C1589.23 2080.99 1596.25 2085.36 1599.66 2092.24L1601.45 2095.85C1655.75 1965.31 1664.97 1816.4 1629.34 1679.53C1624.13 1689.78 1618.7 1699.91 1613.01 1709.91C1608.78 1717.36 1600.31 1721.35 1591.87 1719.87C1583.43 1718.38 1576.84 1711.75 1575.4 1703.3C1569.96 1671.39 1554.64 1641.09 1532.43 1617.47C1522.72 1628.45 1507.44 1644.12 1483.36 1667.39C1453.28 1696.46 1420.23 1726.72 1412.93 1732.39C1286.78 1830.34 1121.68 1893.32 947.57 1910.06C972.06 1933.61 987.34 1966.66 987.34 2003.23C987.34 2074.54 929.33 2132.56 858.02 2132.56C786.71 2132.56 728.69 2074.54 728.69 2003.23C728.69 1966.72 743.93 1933.72 768.34 1910.18C724.87 1905.87 682.35 1898.34 641.03 1887.56C562.23 1867.02 490.92 1835.4 428.18 1793.4C390.72 1840.65 356.88 1890.79 327.3 1943.22L361.49 1919.97C369.04 1914.84 379.08 1915.39 386.03 1921.3C392.98 1927.22 395.12 1937.05 391.27 1945.32L367.66 1995.93L391.63 1978.13C395.2 1975.48 399.45 1974.14 403.72 1974.14C407.09 1974.14 410.46 1974.97 413.53 1976.66C420.48 1980.51 424.55 1988.06 423.94 1995.98C416.73 2089 452.58 2190.81 524.88 2282.64C590.97 2366.59 677.85 2433.43 761.87 2498.08C825.47 2547.01 897.31 2602.29 978.56 2624.11C1199.93 2503.46 1380.23 2333.89 1500.28 2133.31ZM867.49 2620.86C820.2 2594.11 777.11 2560.98 737.14 2530.22C668.12 2477.11 597.24 2422.53 536.15 2357.61C560.7 2571.44 605.71 2845.67 706.88 3016.51C710.54 3022.7 710.66 3030.35 707.19 3036.64C703.72 3042.93 697.18 3046.91 690 3047.12C674.62 3047.54 658.02 3062.94 651.76 3080.31C697.68 3098.6 745.2 3098.8 782.43 3080.63C826.12 2987.11 853.66 2885.48 864.32 2778.45C869.57 2725.83 870.61 2673.18 867.49 2620.86ZM769.25 2003.23C769.25 2052.18 809.07 2092.01 858.02 2092.01C897.24 2092.01 930.58 2066.43 942.29 2031.08C936.28 2033.67 930.07 2035.8 923.71 2037.37C909.97 2040.77 894.52 2041.46 882.57 2033.88C870.62 2026.3 864.9 2008.16 874.12 1997.43C883.21 1986.84 899.75 1988.79 913.16 1984.96C923.7 1981.94 932.58 1974.45 938.14 1965.03C923.96 1935.42 893.85 1914.86 858.99 1914.49C858.09 1914.49 857.2 1914.52 856.3 1914.52C856.18 1914.52 856.06 1914.51 855.93 1914.51C807.95 1915.63 769.25 1954.98 769.25 2003.23ZM401.73 1723.13C471.48 1781.22 555.43 1823.34 651.26 1848.32C717.13 1865.5 786.29 1874.03 857.68 1873.92C857.8 1873.92 857.91 1873.91 858.02 1873.91C858.14 1873.91 858.26 1873.92 858.39 1873.92C884.96 1873.86 911.83 1872.63 938.97 1870.16C1107.28 1854.84 1266.77 1794.54 1388.06 1700.36C1402.29 1689.31 1493.75 1603.24 1508.92 1582.43C1509.55 1579.37 1510.89 1576.4 1512.99 1573.8C1520.01 1565.08 1532.77 1563.7 1541.49 1570.71C1541.52 1570.73 1541.54 1570.76 1541.57 1570.78C1566.7 1591.01 1586.87 1617.51 1600.19 1647.02C1620.55 1604.6 1636.62 1560.2 1648.1 1514.49C1649.67 1508.27 1654.09 1503.15 1660.02 1500.7C1665.95 1498.24 1672.7 1498.74 1678.2 1502.05C1698.7 1514.35 1717.14 1529.65 1732.95 1547.34C1736.78 1505.58 1736.41 1463.5 1731.84 1421.71C1731.19 1415.78 1733.19 1409.87 1737.29 1405.55C1741.39 1401.22 1747.18 1398.94 1753.14 1399.26C1759.04 1399.59 1764.86 1400.5 1770.54 1401.94C1729.95 1283.33 1673.8 1163.35 1603.19 1044.5C1600.7 1040.31 1599.82 1035.36 1600.68 1030.56C1572.29 1009.11 1549.33 979.3 1535.26 946.54C1507.91 882.84 1509.03 810.36 1520.17 741.94C1503.19 759.18 1486.21 776.43 1469.23 793.68C1460.04 738.39 1468.58 680.28 1493.32 629.98C1475.71 642.47 1458.1 654.96 1440.49 667.44C1459.81 611.49 1484.6 557.45 1514.3 506.25C1448.67 549.58 1381.94 611.6 1307.59 698.02C1301.09 705.57 1290.08 707.28 1281.59 702.06C1210.68 658.43 1127.4 628.28 1026.98 609.88C955.63 596.81 880.79 599.46 810.54 617.54C801.98 619.75 792.99 616.16 788.3 608.67C737.09 526.91 680.8 445.25 624.26 370.61C629.7 451.99 630.71 533.67 627.2 615.16C617.43 585.22 601.35 557.36 580.31 533.92C596.97 605.61 584.18 683.7 545.53 746.34C540.33 715.82 535.13 685.3 529.93 654.79C524.51 712.77 492.24 767.69 444.23 800.65C422.86 815.32 398.55 825.48 373.22 830.89C372.95 832.87 372.65 834.85 372.39 836.83C371.8 841.48 369.62 845.78 366.22 849C249.35 959.67 151.55 1083.38 74.75 1217.55L96.91 1203.61C104.75 1198.68 114.93 1199.69 121.65 1206.05C128.37 1212.41 129.93 1222.52 125.44 1230.61C102.58 1271.83 84.56 1315.2 71.57 1360.2C84.88 1349.03 98.87 1338.66 113.48 1329.14C120.23 1324.75 128.94 1324.77 135.67 1329.18C142.41 1333.6 145.89 1341.59 144.54 1349.53L132.86 1418.42C145.39 1407.25 158.79 1397.01 173 1387.78C176.34 1385.61 180.18 1384.5 184.05 1384.5C186.55 1384.5 189.06 1384.96 191.45 1385.9C197.55 1388.29 202.11 1393.47 203.71 1399.82C217.13 1452.97 237.4 1504.84 263.96 1554C299.41 1619.62 345.77 1676.53 401.73 1723.13ZM2953.57 873.75C2896.41 729.54 2773.7 619.79 2633.32 587.31C2512.66 559.4 2382.68 594.39 2294.49 673.59C2301.95 672.75 2309.54 672.32 2317.22 672.32C2334.25 672.32 2351.75 674.41 2369.39 678.64C2420.41 690.87 2469.06 720.51 2502.86 759.97C2559.63 826.25 2589.35 918.85 2593.7 1043.07C2597.62 1154.85 2579.64 1264.62 2541.7 1360.52C2499.5 1467.21 2432.91 1553.83 2349.12 1611.01C2320.49 1630.55 2289.66 1646.94 2259.83 1662.79C2211.9 1688.27 2166.62 1712.34 2130.24 1748.17C2117.17 1761.05 2105.85 1774.95 2096 1789.43C2139.65 1826.22 2177.8 1868.67 2208.89 1915.11C2221.77 1910.1 2234.68 1905.27 2247.5 1900.47C2255.3 1897.55 2263.08 1894.64 2270.82 1891.7C2434.01 1829.75 2565.63 1757.99 2673.21 1672.33C2800.87 1570.68 2895.48 1446.96 2946.83 1314.54C3003.85 1167.47 3006.31 1006.81 2953.57 873.75ZM549.08 1074.54C553.4 1032.39 580.09 1000.59 608.69 1003.52C637.3 1006.45 656.99 1043 652.67 1085.16C648.35 1127.31 621.66 1159.11 593.05 1156.18C564.45 1153.25 544.76 1116.7 549.08 1074.54ZM1067.04 1127.61C1071.36 1085.45 1098.05 1053.65 1126.66 1056.58C1155.26 1059.51 1174.95 1096.06 1170.63 1138.22C1166.31 1180.38 1139.62 1212.18 1111.02 1209.25C1082.41 1206.32 1062.72 1169.76 1067.04 1127.61ZM614.78 1366.92C631.44 1380.7 656.18 1386.48 679.34 1382.02C699.32 1378.17 718.4 1367.34 733.87 1351.24C732 1350.19 730.19 1349.01 728.48 1347.64C713.57 1335.69 709.19 1315.22 705.76 1296.42C701 1270.3 685.91 1237.08 718.04 1227C745.53 1218.38 786.79 1229.14 813.23 1237.24C829.22 1242.13 846.86 1250.99 850.19 1267.38C853.31 1282.7 842.4 1296.98 832.19 1308.82C818.78 1324.36 804.91 1340.28 786.66 1349.68C786.64 1349.68 786.62 1349.69 786.61 1349.7C786.71 1349.97 786.81 1350.25 786.91 1350.52C788.78 1355.63 790.54 1360.45 792.54 1364.82C806.54 1395.35 842.29 1415.76 875.69 1412.29C909.1 1408.81 939.88 1381.49 947.29 1348.72C949.76 1337.8 960.62 1330.94 971.54 1333.42C982.46 1335.89 989.31 1346.75 986.84 1357.67C975.6 1407.41 930.61 1447.35 879.89 1452.62C876 1453.03 872.09 1453.23 868.2 1453.23C822.57 1453.23 777.74 1426.02 757.3 1385.08C737.09 1404.04 712.7 1416.89 687.01 1421.84C679.19 1423.35 671.3 1424.08 663.48 1424.08C636 1424.08 609.28 1415 588.93 1398.17C560.25 1374.45 546.16 1336.54 553.05 1301.6C555.21 1290.61 565.88 1283.45 576.86 1285.62C587.85 1287.79 595 1298.45 592.84 1309.44C588.85 1329.67 597.67 1352.77 614.78 1366.92Z" />
		<path id="Path 8" class="shp1" d="M2208.89 1915.11C2221.77 1910.1 2234.68 1905.27 2247.5 1900.47C2255.3 1897.55 2263.08 1894.64 2270.82 1891.7C2434.01 1829.75 2565.63 1757.99 2673.21 1672.33C2800.87 1570.68 2895.48 1446.96 2946.83 1314.54C3003.85 1167.47 3006.31 1006.81 2953.57 873.75C2896.41 729.55 2773.7 619.79 2633.32 587.31C2512.66 559.4 2382.68 594.39 2294.49 673.59C2301.95 672.75 2309.54 672.32 2317.22 672.32C2334.25 672.32 2351.75 674.41 2369.39 678.64C2420.41 690.87 2469.06 720.52 2502.86 759.97C2559.63 826.25 2589.35 918.85 2593.7 1043.07C2597.62 1154.85 2579.64 1264.62 2541.7 1360.52C2499.5 1467.22 2432.91 1553.83 2349.12 1611.01C2320.49 1630.55 2289.66 1646.94 2259.83 1662.79C2211.9 1688.27 2166.62 1712.34 2130.24 1748.17C2117.17 1761.05 2105.84 1774.95 2096 1789.43C2139.65 1826.22 2177.8 1868.67 2208.89 1915.11ZM2208.57 1916.35C2221.47 1911.34 2234.39 1906.5 2247.23 1901.7C2255.03 1898.78 2262.82 1895.86 2270.57 1892.92C2433.91 1830.91 2565.65 1759.09 2673.33 1673.34C2801.11 1571.6 2895.81 1447.77 2947.2 1315.22C3004.28 1168.02 3006.74 1007.21 2953.95 874.02C2896.74 729.69 2773.91 619.83 2633.4 587.32C2512.63 559.39 2382.53 594.4 2294.26 673.68C2301.73 672.84 2309.32 672.41 2317.01 672.41C2334.06 672.41 2351.57 674.5 2369.23 678.73C2420.3 690.98 2468.99 720.65 2502.82 760.14C2559.65 826.48 2589.39 919.17 2593.75 1043.5C2597.67 1155.38 2579.67 1265.26 2541.7 1361.25C2499.46 1468.04 2432.8 1554.74 2348.94 1611.97C2320.28 1631.53 2289.42 1647.93 2259.57 1663.8C2211.59 1689.3 2166.27 1713.39 2129.86 1749.26C2116.77 1762.15 2105.44 1776.06 2095.58 1790.55C2139.27 1827.38 2177.46 1869.87 2208.57 1916.35Z" />
		<path id="Path 9" class="shp2" d="M2349.13 1611.01C2320.49 1630.55 2289.66 1646.94 2259.83 1662.79C2211.9 1688.27 2166.62 1712.34 2130.24 1748.17C2119.84 1758.42 2110.57 1769.32 2102.24 1780.63C2147.33 1759.1 2198.13 1748.85 2248.18 1743.32C2315.28 1735.9 2383.31 1735.93 2449.56 1722.96C2638.53 1685.97 2796.38 1542.52 2879.31 1368.75C2949.72 1221.23 2970.76 1054.52 2959.91 890.76C2957.89 885.05 2955.79 879.36 2953.57 873.75C2896.41 729.55 2773.7 619.79 2633.32 587.31C2512.66 559.4 2382.68 594.39 2294.49 673.59C2301.95 672.75 2309.54 672.32 2317.22 672.32C2334.25 672.32 2351.75 674.41 2369.39 678.64C2420.41 690.87 2469.06 720.51 2502.86 759.97C2559.63 826.25 2589.35 918.85 2593.7 1043.07C2597.62 1154.85 2579.64 1264.62 2541.71 1360.52C2499.5 1467.22 2432.91 1553.83 2349.13 1611.01Z" />
		<path id="Path 10" class="shp3" d="M2633.32 587.31C2512.66 559.4 2382.68 594.39 2294.49 673.59C2301.95 672.75 2309.54 672.32 2317.22 672.32C2334.25 672.32 2351.75 674.41 2369.39 678.64C2420.41 690.87 2469.06 720.52 2502.86 759.97C2559.63 826.25 2589.35 918.85 2593.7 1043.07C2597.62 1154.85 2579.64 1264.62 2541.7 1360.52C2499.5 1467.22 2432.91 1553.83 2349.12 1611.01C2320.49 1630.55 2289.66 1646.94 2259.83 1662.79C2211.9 1688.27 2166.62 1712.34 2130.24 1748.17C2124.42 1753.91 2118.96 1759.86 2113.8 1765.97C2143.73 1746.59 2178.76 1733.88 2213.73 1726.01C2272.81 1712.72 2333.92 1710.99 2393.41 1699.64C2610.98 1658.14 2791 1484.6 2868.21 1277C2929.39 1112.55 2930.91 930.65 2889.43 759.36C2824.65 673.04 2733.49 610.49 2633.32 587.31Z" />
		<path id="Path 11" class="shp4" d="M2633.32 587.31C2512.66 559.4 2382.68 594.39 2294.49 673.59C2301.95 672.75 2309.54 672.32 2317.22 672.32C2334.25 672.32 2351.75 674.41 2369.39 678.64C2420.41 690.87 2469.06 720.52 2502.86 759.97C2559.63 826.25 2589.35 918.85 2593.7 1043.07C2597.62 1154.85 2579.64 1264.62 2541.7 1360.52C2499.5 1467.22 2432.91 1553.83 2349.12 1611.01C2320.49 1630.55 2289.66 1646.94 2259.83 1662.79C2221.19 1683.33 2184.29 1702.96 2152.38 1728.56C2258.42 1671.59 2387.43 1649.42 2498.41 1596.77C2701.55 1500.38 2843.94 1290.74 2867.37 1067.11C2882.21 925.47 2850.41 780.96 2782.99 655.44C2737.39 623.15 2686.63 599.65 2633.32 587.31Z" />
		<path id="Path 12" class="shp5" d="M2799.26 838.58C2769.61 741.98 2711.83 654.52 2635.89 587.96C2635.03 587.75 2634.18 587.51 2633.32 587.31C2512.66 559.4 2382.68 594.39 2294.49 673.59C2301.95 672.75 2309.54 672.32 2317.22 672.32C2334.25 672.32 2351.75 674.41 2369.39 678.64C2420.41 690.87 2469.06 720.51 2502.86 759.97C2559.63 826.25 2589.35 918.85 2593.7 1043.07C2597.62 1154.85 2579.64 1264.62 2541.71 1360.52C2499.5 1467.21 2432.91 1553.83 2349.13 1611.01C2320.49 1630.55 2289.66 1646.94 2259.83 1662.79C2211.9 1688.27 2166.62 1712.34 2130.24 1748.17C2128.46 1749.93 2126.72 1751.71 2125 1753.5C2221.55 1687.07 2326.45 1632.35 2426.46 1570.72C2555.55 1491.19 2680.85 1395.52 2754.56 1263.02C2825.62 1135.28 2842.15 978.33 2799.26 838.58Z" />
		<path id="Path 13" class="shp6" d="M1643.49 2770.42C1655.53 2778.39 1667.98 2786.63 1680.04 2795.09C1744.19 2840.08 1780.53 2892.1 1791.16 2954.12C1792.61 2962.58 1788.58 2971.04 1781.09 2975.23C1759.03 2987.59 1744.27 3011.92 1741.76 3037.99L1854.45 3037.99C1862.82 3005.55 1866.74 2953.52 1838.85 2863.2C1833.87 2847.06 1828.31 2830.6 1822.94 2814.68C1806.44 2765.76 1789.36 2715.17 1784.42 2661.92C1778.34 2596.41 1790.92 2532.72 1808.29 2470.61C1807.43 2461.23 1806.65 2452.01 1805.89 2443.04L1801.72 2393.55C1748.41 2449.13 1682.84 2496.3 1609.76 2531.38C1569.72 2550.6 1528.23 2565.76 1486.24 2576.72C1495.88 2615.15 1510.41 2649.95 1533.92 2680.13C1562.49 2716.79 1601.84 2742.84 1643.49 2770.42ZM1620.34 2152.05C1616.91 2158.93 1609.88 2163.27 1602.2 2163.27L1602.17 2163.27C1594.47 2163.26 1587.45 2158.9 1584.03 2152.01L1581.39 2146.68L1537.17 2234.8C1532.98 2243.14 1523.64 2247.54 1514.54 2245.47C1505.43 2243.4 1498.92 2235.37 1498.77 2226.04L1498.53 2211.62C1488.43 2226.6 1477.96 2241.38 1467.19 2255.98C1482.78 2327.39 1487.25 2425.25 1480.6 2536.32C1518.5 2526.11 1555.97 2512.21 1592.21 2494.82C1675.3 2454.93 1747.92 2398.58 1802.22 2331.83C1807.44 2325.42 1816.03 2322.81 1823.93 2325.26C1831.83 2327.69 1837.46 2334.69 1838.15 2342.93L1846.3 2439.63C1852.81 2516.82 1860.91 2612.89 1913.3 2680.13C1941.88 2716.79 1981.22 2742.84 2022.87 2770.41C2034.91 2778.39 2047.37 2786.63 2059.43 2795.09C2123.57 2840.08 2159.92 2892.1 2170.55 2954.12C2172 2962.58 2167.96 2971.03 2160.47 2975.23C2138.42 2987.59 2123.65 3011.92 2121.14 3037.99L2233.83 3037.99C2242.2 3005.55 2246.12 2953.51 2218.24 2863.2C2213.25 2847.06 2207.7 2830.6 2202.33 2814.68C2185.82 2765.76 2168.75 2715.17 2163.8 2661.92C2155.41 2571.48 2182.57 2484.5 2208.84 2400.37C2229.41 2334.48 2250.69 2266.33 2253.77 2198.48C2257.43 2117.8 2234.62 2034.42 2187.82 1957.35C2143.55 1884.45 2080.69 1820.9 2006.03 1773.59C1913.96 1715.23 1801.33 1675.97 1664.55 1654.76C1710.96 1818.38 1696.34 1999.76 1620.34 2152.05ZM707.19 3036.64C703.72 3042.93 697.18 3046.91 690 3047.11C674.62 3047.54 658.02 3062.94 651.76 3080.31C697.68 3098.6 745.21 3098.8 782.44 3080.63C826.12 2987.11 853.66 2885.48 864.32 2778.45C869.57 2725.83 870.61 2673.18 867.49 2620.86C820.2 2594.11 777.11 2560.98 737.14 2530.22C668.12 2477.11 597.24 2422.53 536.15 2357.61C560.7 2571.44 605.71 2845.67 706.88 3016.51C710.54 3022.69 710.66 3030.35 707.19 3036.64ZM1080.54 2611.31C1116.72 2753.47 1173.12 2890.82 1247.56 3016.51C1251.22 3022.69 1251.33 3030.35 1247.87 3036.64C1244.39 3042.93 1237.86 3046.91 1230.68 3047.11C1215.29 3047.54 1198.7 3062.94 1192.44 3080.31C1238.35 3098.6 1285.86 3098.8 1323.09 3080.64C1404.81 2903.4 1467.82 2521.15 1433.95 2299.18C1337.32 2419.44 1217.85 2525.03 1080.54 2611.31Z" />
		<path id="Path 14" class="shp7" d="M1188.47 2906.45C1202.51 2901.57 1216.91 2897.61 1230.24 2891.05C1247.72 2882.45 1263.92 2867.85 1267.24 2848.66C1274.49 2806.86 1220.96 2779 1212.08 2737.51C1204.65 2702.83 1229.82 2670.85 1247.05 2639.85C1274.93 2589.7 1283.76 2528.36 1266.88 2473.51C1266.83 2473.34 1266.77 2473.16 1266.72 2472.99C1209.2 2523.26 1146.98 2569.57 1080.54 2611.31C1106.42 2713 1142.7 2812.19 1188.47 2906.45Z" />
		<path id="Path 15" class="shp8" d="M769.25 2003.23C769.25 2052.18 809.07 2092.01 858.02 2092.01C897.24 2092.01 930.58 2066.43 942.29 2031.08C936.28 2033.67 930.07 2035.8 923.71 2037.37C909.97 2040.77 894.52 2041.46 882.57 2033.88C870.62 2026.3 864.9 2008.16 874.12 1997.43C883.21 1986.84 899.75 1988.79 913.16 1984.96C923.7 1981.94 932.58 1974.45 938.14 1965.03C923.96 1935.42 893.85 1914.86 858.99 1914.49C858.09 1914.49 857.2 1914.52 856.3 1914.52C856.18 1914.52 856.06 1914.51 855.93 1914.51C807.95 1915.63 769.25 1954.98 769.25 2003.23Z" />
		<path id="Path 16" class="shp6" d="M1591.88 1719.87C1583.43 1718.38 1576.84 1711.75 1575.4 1703.3C1569.96 1671.4 1554.64 1641.09 1532.43 1617.47C1522.72 1628.45 1507.43 1644.12 1483.36 1667.39C1453.28 1696.47 1420.23 1726.73 1412.93 1732.39C1286.78 1830.34 1121.68 1893.32 947.57 1910.06C972.06 1933.61 987.34 1966.66 987.34 2003.23C987.34 2074.54 929.33 2132.56 858.02 2132.56C786.71 2132.56 728.69 2074.54 728.69 2003.23C728.69 1966.72 743.92 1933.72 768.34 1910.18C724.86 1905.87 682.35 1898.34 641.03 1887.57C562.22 1867.02 490.92 1835.41 428.18 1793.4C390.72 1840.65 356.89 1890.8 327.3 1943.22L361.49 1919.98C369.04 1914.84 379.08 1915.39 386.03 1921.3C392.98 1927.22 395.13 1937.05 391.27 1945.32L367.66 1995.93L391.64 1978.13C395.2 1975.48 399.45 1974.14 403.72 1974.14C407.08 1974.14 410.46 1974.97 413.53 1976.66C420.48 1980.51 424.55 1988.06 423.94 1995.98C416.73 2089 452.58 2190.81 524.88 2282.64C590.97 2366.59 677.85 2433.43 761.87 2498.08C825.47 2547.01 897.31 2602.29 978.56 2624.11C1199.93 2503.46 1380.23 2333.89 1500.28 2133.31C1504.93 2125.54 1514.17 2121.8 1522.92 2124.14C1531.49 2126.43 1537.56 2134.02 1537.94 2142.85L1563.37 2092.16C1566.81 2085.3 1573.83 2080.98 1581.49 2080.98L1581.54 2080.98C1589.23 2080.99 1596.25 2085.36 1599.66 2092.24L1601.45 2095.85C1655.75 1965.31 1664.97 1816.4 1629.33 1679.53C1624.13 1689.78 1618.7 1699.91 1613.01 1709.91C1608.78 1717.36 1600.31 1721.35 1591.88 1719.87Z" />
		<path id="Path 17" fill-rule="evenodd" class="shp6" d="M858.02 1873.91C857.91 1873.91 857.8 1873.92 857.68 1873.92C786.29 1874.03 717.13 1865.5 651.26 1848.32C555.43 1823.34 471.48 1781.22 401.73 1723.13C345.77 1676.53 299.42 1619.62 263.96 1554C237.4 1504.84 217.13 1452.97 203.71 1399.82C202.11 1393.47 197.55 1388.29 191.45 1385.9C189.06 1384.96 186.55 1384.5 184.05 1384.5C180.18 1384.5 176.34 1385.61 173 1387.78C158.79 1397.01 145.39 1407.25 132.86 1418.42L144.54 1349.53C145.89 1341.59 142.41 1333.6 135.67 1329.18C128.94 1324.77 120.23 1324.75 113.49 1329.14C98.87 1338.66 84.88 1349.03 71.57 1360.2C84.56 1315.21 102.58 1271.83 125.44 1230.61C129.93 1222.52 128.37 1212.41 121.65 1206.05C114.93 1199.69 104.75 1198.68 96.92 1203.61L74.75 1217.55C151.55 1083.38 249.35 959.67 366.22 849C369.62 845.78 371.81 841.48 372.4 836.83C372.65 834.85 372.95 832.87 373.22 830.89C398.55 825.48 422.86 815.32 444.23 800.65C492.24 767.69 524.51 712.77 529.93 654.79C535.13 685.3 540.33 715.82 545.53 746.34C584.19 683.7 596.97 605.61 580.31 533.92C601.35 557.36 617.43 585.22 627.2 615.17C630.71 533.67 629.71 451.99 624.26 370.61C680.8 445.25 737.09 526.91 788.3 608.67C792.99 616.16 801.98 619.75 810.54 617.54C880.79 599.46 955.63 596.81 1026.98 609.88C1127.4 628.28 1210.68 658.43 1281.59 702.06C1290.08 707.28 1301.09 705.57 1307.59 698.02C1381.94 611.6 1448.67 549.59 1514.3 506.25C1484.6 557.45 1459.81 611.49 1440.49 667.44C1458.1 654.96 1475.71 642.47 1493.32 629.98C1468.58 680.28 1460.04 738.39 1469.24 793.68C1486.21 776.43 1503.19 759.18 1520.17 741.94C1509.04 810.36 1507.92 882.84 1535.26 946.54C1549.33 979.3 1572.29 1009.11 1600.68 1030.56C1599.82 1035.36 1600.7 1040.31 1603.19 1044.5C1673.8 1163.35 1729.95 1283.33 1770.54 1401.94C1764.86 1400.5 1759.04 1399.59 1753.15 1399.26C1747.18 1398.94 1741.39 1401.22 1737.29 1405.55C1733.19 1409.87 1731.19 1415.78 1731.84 1421.71C1736.41 1463.5 1736.78 1505.58 1732.95 1547.34C1717.14 1529.65 1698.7 1514.35 1678.2 1502.05C1672.7 1498.74 1665.96 1498.24 1660.02 1500.7C1654.09 1503.15 1649.67 1508.27 1648.1 1514.49C1636.62 1560.2 1620.55 1604.6 1600.19 1647.02C1586.88 1617.51 1566.7 1591.01 1541.57 1570.78C1541.55 1570.76 1541.52 1570.73 1541.49 1570.71C1532.77 1563.7 1520.01 1565.08 1512.99 1573.8C1510.89 1576.4 1509.55 1579.37 1508.92 1582.43C1493.75 1603.24 1402.29 1689.31 1388.06 1700.36C1266.77 1794.54 1107.28 1854.84 938.98 1870.16L938.97 1870.16C911.83 1872.63 884.96 1873.86 858.39 1873.92C858.27 1873.92 858.14 1873.91 858.02 1873.91ZM614.78 1366.92C597.67 1352.77 588.85 1329.67 592.84 1309.44C595 1298.45 587.85 1287.79 576.86 1285.62C565.88 1283.45 555.21 1290.61 553.05 1301.6C546.16 1336.54 560.25 1374.45 588.93 1398.17C609.28 1415 636 1424.09 663.48 1424.09C671.3 1424.09 679.19 1423.35 687.01 1421.84C712.7 1416.89 737.09 1404.04 757.3 1385.08C777.74 1426.02 822.57 1453.23 868.2 1453.23C872.09 1453.23 876 1453.03 879.89 1452.62C930.61 1447.35 975.6 1407.42 986.85 1357.67C989.32 1346.75 982.46 1335.89 971.54 1333.42C960.62 1330.94 949.76 1337.8 947.29 1348.72C939.88 1381.49 909.1 1408.81 875.69 1412.29C842.29 1415.76 806.54 1395.36 792.54 1364.82C790.54 1360.45 788.78 1355.63 786.91 1350.52C786.81 1350.25 786.71 1349.97 786.61 1349.7C786.62 1349.69 786.64 1349.68 786.66 1349.68C804.91 1340.28 818.78 1324.37 832.19 1308.82C842.4 1296.99 853.31 1282.7 850.19 1267.38C846.86 1250.99 829.22 1242.13 813.24 1237.24C786.79 1229.14 745.53 1218.38 718.04 1227C685.91 1237.08 701 1270.3 705.76 1296.42C709.19 1315.22 713.57 1335.69 728.48 1347.65C730.19 1349.01 732 1350.19 733.87 1351.24C718.4 1367.34 699.32 1378.17 679.34 1382.02C656.18 1386.48 631.44 1380.7 614.78 1366.92ZM1111.02 1209.25C1139.62 1212.18 1166.32 1180.38 1170.63 1138.22C1174.95 1096.06 1155.26 1059.51 1126.66 1056.58C1098.05 1053.65 1071.36 1085.45 1067.04 1127.61C1062.72 1169.76 1082.41 1206.31 1111.02 1209.25ZM593.05 1156.18C621.66 1159.11 648.35 1127.31 652.67 1085.16C656.99 1043 637.3 1006.45 608.69 1003.52C580.09 1000.59 553.4 1032.39 549.08 1074.54C544.76 1116.7 564.45 1153.25 593.05 1156.18Z" />
		<path id="Path 18" class="shp9" d="M1600.68 1030.56C1572.29 1009.11 1549.33 979.3 1535.26 946.54C1507.92 882.84 1509.03 810.36 1520.17 741.94C1503.19 759.18 1486.21 776.43 1469.23 793.68C1460.04 738.39 1468.58 680.28 1493.32 629.98C1475.71 642.47 1458.1 654.96 1440.49 667.44C1459.81 611.49 1484.6 557.45 1514.3 506.25C1490.89 521.71 1467.32 539.6 1443.33 560.08C1401.7 613.41 1370.38 674.81 1352.2 739.98C1372.45 727.06 1392.71 714.14 1412.97 701.22C1389.12 767.91 1376.15 838.48 1374.73 909.29C1395 889.02 1415.26 868.76 1435.53 848.49C1427.48 898.96 1429.3 950.98 1440.85 1000.76C1451.13 974.99 1461.41 949.22 1471.68 923.45C1505.57 1069.53 1570.78 1206.13 1635.52 1341.39C1609.59 1312.28 1583.66 1283.17 1557.73 1254.06C1556.25 1304.71 1554.77 1355.36 1553.29 1406C1533.91 1370.69 1514.53 1335.38 1495.15 1300.07C1429.65 1549.07 1240.8 1760.25 1005.09 1861.75C1148.71 1838.31 1282.78 1782.1 1388.06 1700.36C1402.29 1689.31 1493.75 1603.24 1508.92 1582.43C1509.55 1579.36 1510.89 1576.4 1512.99 1573.8C1520.01 1565.08 1532.77 1563.7 1541.49 1570.71C1541.52 1570.73 1541.55 1570.76 1541.57 1570.78C1566.7 1591.01 1586.88 1617.51 1600.19 1647.02C1620.55 1604.6 1636.62 1560.2 1648.1 1514.49C1649.67 1508.27 1654.09 1503.15 1660.02 1500.69C1665.96 1498.24 1672.7 1498.74 1678.2 1502.05C1698.7 1514.35 1717.14 1529.65 1732.95 1547.34C1736.78 1505.58 1736.41 1463.5 1731.84 1421.71C1731.19 1415.78 1733.19 1409.87 1737.29 1405.55C1741.39 1401.22 1747.18 1398.94 1753.14 1399.26C1759.04 1399.59 1764.86 1400.5 1770.54 1401.94C1729.95 1283.33 1673.8 1163.35 1603.19 1044.5C1600.7 1040.31 1599.82 1035.36 1600.68 1030.56ZM1629.34 1679.53C1624.13 1689.78 1618.7 1699.91 1613.01 1709.91C1608.78 1717.36 1600.31 1721.35 1591.88 1719.87C1583.43 1718.38 1576.84 1711.75 1575.4 1703.3C1569.96 1671.4 1554.64 1641.09 1532.43 1617.47C1522.72 1628.45 1507.44 1644.12 1483.36 1667.39C1453.28 1696.47 1420.23 1726.73 1412.93 1732.39C1293.48 1825.14 1139.11 1886.5 975.23 1906.97C1117.43 1943.46 1274.48 1922.37 1400.36 1846.31C1376.5 1889.98 1352.65 1933.65 1328.79 1977.31L1450.22 1920.61C1403.37 2012.55 1343.08 2097.62 1271.86 2172.28C1312.66 2149.44 1353.46 2126.61 1394.25 2103.77C1318.14 2220.43 1217.91 2321.3 1101.73 2398.15C1140.17 2381.58 1178.61 2365 1217.05 2348.43C1177.34 2394.89 1137.28 2441.68 1089.1 2479.28C1040.92 2516.87 983.44 2545.08 922.43 2548.72C879.19 2551.3 837.66 2541.72 797.76 2525.44C852.18 2566.19 912.24 2606.3 978.56 2624.11C1199.93 2503.46 1380.23 2333.89 1500.28 2133.31C1504.93 2125.54 1514.17 2121.8 1522.92 2124.14C1531.49 2126.43 1537.55 2134.02 1537.94 2142.85L1563.37 2092.16C1566.81 2085.3 1573.83 2080.98 1581.49 2080.98L1581.54 2080.98C1589.23 2080.99 1596.25 2085.36 1599.66 2092.24L1601.45 2095.85C1655.75 1965.31 1664.97 1816.4 1629.34 1679.53ZM782.43 3080.63C826.11 2987.11 853.66 2885.49 864.32 2778.45C869.57 2725.83 870.61 2673.18 867.49 2620.86C820.2 2594.11 777.11 2560.98 737.14 2530.22C687.71 2492.18 637.34 2453.37 590.28 2410.56C641.96 2506.55 693.64 2602.54 745.32 2698.53C721.72 2680.32 693.47 2668.2 664.01 2663.63C682.07 2696.3 700.13 2728.97 718.19 2761.63C696.6 2749.62 675 2737.62 653.41 2725.61C738.85 2824.43 772.4 2964.12 747.33 3091.83C759.71 3089.66 771.52 3085.96 782.43 3080.63ZM1264.98 3094.05C1285.8 3093.6 1305.59 3089.18 1323.09 3080.64C1404.81 2903.4 1467.82 2521.15 1433.94 2299.18C1370.28 2378.42 1296.64 2451.24 1214.57 2516.41C1246.75 2503.25 1278.93 2490.08 1311.11 2476.91C1288.26 2524.22 1265.4 2571.52 1242.55 2618.83C1278.75 2594.73 1314.95 2570.62 1351.15 2546.51C1329.52 2579.15 1307.9 2611.79 1286.27 2644.42C1320.21 2624 1354.15 2603.59 1388.09 2583.17C1335.52 2631.16 1318.38 2706.87 1315.55 2778C1312.73 2849.12 1321.34 2921.13 1308.24 2991.09C1301.41 3027.54 1286.9 3064.24 1264.98 3094.05ZM1994.11 2145.45C1957.7 2168.58 1926.81 2200.33 1904.68 2237.36C1919.67 2173.57 1934.65 2109.78 1949.64 2045.99C1846.24 2224.02 1677.54 2362.86 1483.54 2431.45C1483.76 2464.66 1482.79 2499.77 1480.6 2536.32C1518.5 2526.11 1555.97 2512.21 1592.21 2494.82C1675.31 2454.94 1747.92 2398.58 1802.22 2331.83C1807.44 2325.42 1816.03 2322.81 1823.93 2325.26C1831.83 2327.7 1837.46 2334.69 1838.15 2342.93L1846.31 2439.63C1852.81 2516.82 1860.91 2612.89 1913.31 2680.13C1929.22 2700.55 1948.48 2717.67 1969.61 2733.6C1900.9 2544.55 1908.38 2327.8 1994.11 2145.45ZM2046.05 2473.18C2071.56 2456.03 2097.08 2438.88 2122.59 2421.73C2095.22 2462.94 2067.84 2504.15 2040.47 2545.36C2060.86 2532.19 2081.25 2519.02 2101.63 2505.85C2073.98 2595.73 2107.18 2691.94 2141.6 2779.46C2174.21 2862.36 2208.8 2950.97 2194.48 3037.99L2233.83 3037.99C2242.2 3005.55 2246.12 2953.52 2218.24 2863.2C2213.25 2847.06 2207.7 2830.6 2202.33 2814.68C2185.82 2765.76 2168.75 2715.17 2163.8 2661.92C2155.41 2571.48 2182.57 2484.5 2208.84 2400.38C2229.41 2334.48 2250.69 2266.33 2253.77 2198.48C2256.66 2134.7 2243 2069.24 2214.03 2006.53C2225.09 2176.09 2163.92 2350.31 2046.05 2473.18ZM1822.94 2814.68C1806.44 2765.76 1789.36 2715.17 1784.42 2661.92C1778.34 2596.41 1790.92 2532.72 1808.29 2470.61C1807.43 2461.23 1806.65 2452.01 1805.9 2443.04L1801.72 2393.56C1748.41 2449.13 1682.84 2496.3 1609.76 2531.38C1569.73 2550.6 1528.23 2565.76 1486.24 2576.72C1492.14 2600.23 1499.88 2622.38 1510.37 2642.94C1580.44 2641.58 1650.04 2617.58 1705.64 2574.86C1684.27 2607.73 1662.9 2640.6 1641.53 2673.48C1672.68 2661.54 1703.83 2649.6 1734.98 2637.67C1717.8 2667.22 1722.92 2705.08 1736.51 2736.44C1750.1 2767.8 1771.22 2795.31 1786.55 2825.86C1819.22 2890.97 1822.55 2969.55 1798.09 3037.99L1854.45 3037.99C1862.82 3005.55 1866.74 2953.52 1838.85 2863.2C1833.87 2847.06 1828.32 2830.6 1822.94 2814.68Z" />
		<path id="Path 19" class="shp10" d="M2953.57 873.75C2896.41 729.55 2773.7 619.79 2633.32 587.31C2512.66 559.4 2382.68 594.39 2294.49 673.59C2300.81 672.88 2307.22 672.48 2313.69 672.37C2448.84 613.06 2616.42 629.98 2734.58 719.4C2696.44 715.73 2658.31 712.06 2620.17 708.38C2701.48 751.03 2762.49 830.6 2782.58 920.2C2755.49 902.07 2728.4 883.93 2701.31 865.8C2741.03 1014.43 2730.13 1176.11 2670.81 1318.06C2611.5 1460 2504.13 1581.37 2370.47 1657.55C2285.35 1706.06 2184.91 1741.51 2119.5 1810.28C2153.43 1841.97 2183.52 1877.21 2208.89 1915.11C2221.77 1910.1 2234.68 1905.27 2247.5 1900.47C2255.3 1897.55 2263.08 1894.64 2270.82 1891.7C2434.01 1829.75 2565.63 1757.99 2673.21 1672.33C2800.87 1570.68 2895.48 1446.96 2946.83 1314.54C3003.85 1167.47 3006.31 1006.81 2953.57 873.75Z" />
		<path id="Path 20" class="shp7" d="M760.79 776.84C757.43 806.46 787.77 830.47 789.45 860.24C790.81 884.48 773.22 904.99 758.99 924.67C744.76 944.34 732.96 971.28 745.78 991.9C758.96 1013.08 791.95 1013.23 812.07 998.47C832.18 983.71 842.32 959.22 850.66 935.71C859.01 912.21 867.12 887.43 884.93 869.97C913.38 842.1 957.48 840.68 997.2 837.84C1036.92 835 1082.29 825.13 1100.78 789.86C1113.37 765.85 1109.57 736.47 1118.33 710.81C1127.36 684.39 1148.51 664.81 1172.15 649.06C1128.04 632.58 1079.91 619.58 1026.98 609.88C987.04 602.56 946 600.18 905.29 602.67C904.94 609.15 904.57 615.63 904.02 622.06C901.47 651.88 893.52 683.69 870.37 702.65C852.48 717.29 828.66 721.73 807.07 729.99C785.48 738.25 763.39 753.87 760.79 776.84ZM699.6 1521.7C716.28 1480.79 734.51 1437.77 747.25 1393.71C729.22 1407.95 708.58 1417.69 687.01 1421.84C679.19 1423.35 671.3 1424.09 663.48 1424.09C636 1424.09 609.28 1415 588.93 1398.17C560.25 1374.45 546.16 1336.54 553.05 1301.6C555.21 1290.61 565.88 1283.45 576.86 1285.62C587.85 1287.79 595 1298.45 592.84 1309.44C588.85 1329.67 597.67 1352.77 614.77 1366.92C631.44 1380.7 656.18 1386.48 679.34 1382.02C699.32 1378.17 718.4 1367.34 733.87 1351.24C732 1350.19 730.19 1349.01 728.48 1347.65C713.57 1335.69 709.19 1315.22 705.76 1296.42C701 1270.3 685.91 1237.08 718.04 1227C727.16 1224.14 737.81 1223.44 748.92 1224.04C735.21 1191.21 711.65 1164.97 677.16 1182.36C654.45 1193.81 650.39 1225.71 630.35 1241.37C586.48 1275.65 516.6 1206.43 470.32 1237.39C447.42 1252.7 444.1 1285.15 448.22 1312.39C452.33 1339.63 461.52 1367.31 455.13 1394.1C450.49 1413.56 438.13 1430.08 427.1 1446.76C416.06 1463.45 405.79 1482.02 406.27 1502.01C406.74 1522.01 422.03 1542.88 442.02 1542.51C464.06 1542.09 484.07 1517.58 504.29 1526.37C518.52 1532.55 521.46 1550.81 526.91 1565.33C543.06 1608.36 601.22 1629.19 641.02 1606.21C671.28 1588.73 686.41 1554.06 699.6 1521.7ZM1816.63 2129.33C1873.18 2086.88 1892.67 2004.52 1954.92 1970.97C1991.66 1951.18 2035.97 1952.78 2075.91 1940.66C2102.53 1932.59 2126.71 1918.43 2147.87 1900.37C2108.6 1851.26 2060.48 1808.09 2006.03 1773.59C1949.24 1737.59 1884.59 1708.88 1811.31 1687.17C1800.33 1711.05 1782.2 1733.07 1768.6 1753.14C1747.09 1784.87 1729.32 1825.37 1744.57 1860.54C1762.59 1902.11 1821.44 1922.72 1822.64 1968.01C1823.54 2001.85 1791.05 2025.25 1765.95 2047.97C1740.86 2070.69 1720.88 2112.52 1745.6 2135.65C1764.48 2153.31 1795.94 2144.85 1816.63 2129.33Z" />
		<path id="Path 21" class="shp11" d="M2262.87 1661.18C2261.86 1661.71 2260.84 1662.25 2259.83 1662.79C2211.9 1688.27 2166.62 1712.34 2130.24 1748.17C2129.32 1749.08 2128.43 1750.01 2127.52 1750.93C2168.46 1717.69 2215.73 1689.34 2262.87 1661.18ZM2441.33 593.14C2386.68 608.88 2335.96 636.34 2294.49 673.59C2301.95 672.75 2309.54 672.32 2317.22 672.32C2334.25 672.32 2351.75 674.41 2369.39 678.64C2420.41 690.87 2469.06 720.51 2502.86 759.97C2559.63 826.25 2589.35 918.85 2593.7 1043.07C2597.62 1154.85 2579.64 1264.62 2541.7 1360.52C2508.89 1443.47 2461.33 1514.28 2402.42 1568.56C2582.08 1423.92 2693.96 1196.9 2696.13 965.92C2697.05 867.64 2675.8 762.57 2605.63 693.75C2560.75 649.74 2498.73 622.85 2441.33 593.14Z" />
		<path id="Path 22" class="shp12" d="M2439.56 1769.63C2341.99 1790.83 2241.77 1807.15 2148.31 1840.6C2170.52 1864.33 2190.72 1889.68 2208.58 1916.35C2221.47 1911.34 2234.39 1906.5 2247.23 1901.7C2255.03 1898.78 2262.82 1895.86 2270.57 1892.92C2401.68 1843.15 2512.42 1787.04 2606.71 1722.49C2552.63 1742.77 2495.73 1757.42 2439.56 1769.63Z" />
		<path id="Path 23" class="shp13" d="M779.87 118.39C779.86 118.38 779.85 118.38 779.83 118.37C779.83 118.38 779.82 118.39 779.81 118.4C779.82 118.42 779.84 118.44 779.85 118.47C779.86 118.44 779.86 118.42 779.87 118.39Z" />
		<path id="Path 24" class="shp7" d="M974.85 768.21C974.59 767.86 974.17 767.36 973.5 766.72C962.19 755.81 957.94 739.52 962.4 724.51C962.2 724.29 961.94 724.03 961.62 723.73C949.86 712.83 945.38 696.24 949.91 680.98C949.85 680.92 949.79 680.87 949.73 680.81C937.51 669.92 932.79 653.01 937.4 637.5C925.01 626.62 920.2 609.58 924.84 593.98C912.45 583.13 907.63 566.11 912.23 550.53C899.82 539.68 895 522.64 899.59 507.07C887.15 496.25 882.31 479.2 886.86 463.64C874.41 452.83 869.56 435.76 874.09 420.21C861.61 409.43 856.73 392.37 861.21 376.83C854.4 370.96 849.59 363 847.62 354.08C846.1 347.2 846.34 340.13 848.24 333.49C841.33 327.57 836.46 319.51 834.5 310.46C833.03 303.67 833.28 296.72 835.12 290.19C828.1 284.23 823.15 276.04 821.21 266.83C819.8 260.17 820.05 253.36 821.82 246.97C814.66 240.95 809.6 232.63 807.68 223.23C806.34 216.71 806.59 210.08 808.27 203.84C800.93 197.77 795.75 189.28 793.83 179.65C792.58 173.35 792.81 166.97 794.37 160.95C790.56 157.89 787.32 154.19 784.78 150C783.64 154.76 781.68 159.28 779 163.36C782.31 168.61 784.48 174.62 785.21 181C786.33 190.75 783.99 200.42 778.85 208.45C782.35 213.87 784.61 220.11 785.33 226.72C786.36 236.27 784.09 245.75 779.09 253.67C782.72 259.21 785.03 265.6 785.73 272.36C786.69 281.72 784.48 291.04 779.62 298.87C783.36 304.52 785.72 311.06 786.39 317.96C787.29 327.18 785.12 336.35 780.35 344.1C784.18 349.84 786.57 356.51 787.22 363.52C788.06 372.61 785.92 381.66 781.23 389.33C790.23 402.77 790.8 420.51 782.2 434.58C791.27 448.01 791.85 465.73 783.3 479.83C792.38 493.26 792.97 510.98 784.43 525.08C793.55 538.51 794.17 556.21 785.66 570.32C794.77 583.76 795.39 601.45 786.91 615.55C796.05 628.99 796.7 646.7 788.23 660.82C797.36 674.18 798.03 691.73 789.72 705.82C789.67 705.9 789.63 705.97 789.59 706.04C798.56 719.19 799.36 736.36 791.49 750.33C791.28 750.71 791.11 751.03 790.98 751.31C799.82 764.24 800.74 781.05 793.29 794.89C792.86 795.7 792.61 796.31 792.47 796.72C794.13 798.95 800.85 804.91 816.87 809.46C836.97 815.17 862.33 816.08 888.28 812.02C914.23 807.96 938.1 799.36 955.5 787.79C969.37 778.57 973.94 770.83 974.85 768.21Z" />
		<path id="Path 25" fill-rule="evenodd" class="shp0" d="M1016.55 761.65C1022.69 800.91 968.17 842.05 894.77 853.52C821.37 865 756.89 842.47 750.75 803.2C749.28 793.76 751.34 784.22 756.29 775C752.51 769.75 750.01 764 749.04 757.81C747.57 748.4 749.73 738.88 754.89 729.71C750.93 724.46 748.3 718.67 747.33 712.42C745.86 703.05 748.17 693.58 753.53 684.49C749.34 679.22 746.61 673.37 745.61 667.02C744.15 657.69 746.61 648.24 752.21 639.21C747.79 633.95 744.9 628.06 743.9 621.63C742.44 612.32 745.04 602.88 750.91 593.91C746.24 588.67 743.2 582.75 742.18 576.24C740.73 566.96 743.53 557.55 749.67 548.66C744.71 543.44 741.5 537.45 740.47 530.84C739.02 521.58 742.01 512.17 748.48 503.34C743.22 498.16 739.8 492.15 738.76 485.45C737.31 476.2 740.54 466.81 747.37 458.06C741.74 452.92 738.11 446.86 737.04 440.06C735.6 430.8 739.08 421.4 746.32 412.72C740.3 407.65 736.41 401.57 735.33 394.67C733.88 385.41 737.69 375.98 745.4 367.4C738.91 362.42 734.71 356.29 733.62 349.27C732.16 339.99 736.34 330.54 744.6 322.05C737.57 317.19 733.02 311.03 731.9 303.88C730.44 294.55 735.06 285.04 743.97 276.67C736.31 271.97 731.33 265.78 730.19 258.49C728.72 249.09 733.88 239.49 743.57 231.25C735.16 226.77 729.64 220.56 728.47 213.1C726.99 203.59 732.83 193.85 743.48 185.78C734.15 181.62 727.96 175.38 726.76 167.71C725.24 158.01 732.02 148.06 743.92 140.23C733.41 136.52 726.29 130.26 725.05 122.31C723.48 112.3 731.61 102 745.24 94.54C733.11 91.54 724.64 85.26 723.33 76.92C721.67 66.29 732.11 55.3 748.5 48.56C733.86 46.88 723.03 40.56 721.62 31.53C719.61 18.65 737.48 5.17 761.55 1.4C785.62 -2.36 806.76 5.03 808.77 17.9C810.18 26.93 801.8 36.26 788.37 42.32C806.03 43.74 819.33 51.03 820.99 61.65C822.3 69.99 816.14 78.56 805.51 85.12C820.77 88.06 831.65 95.39 833.21 105.4C834.46 113.35 829.59 121.48 820.71 128.23C834.43 132.05 843.92 139.45 845.44 149.15C846.64 156.82 842.65 164.66 835.04 171.47C847.64 175.9 856.17 183.39 857.66 192.9C858.83 200.37 855.47 207.97 848.83 214.79C860.57 219.68 868.41 227.25 869.88 236.65C871.02 243.94 868.16 251.36 862.31 258.17C873.34 263.42 880.65 271.07 882.1 280.4C883.22 287.55 880.76 294.8 875.56 301.57C886.01 307.14 892.87 314.87 894.33 324.15C895.42 331.17 893.29 338.28 888.63 345C898.6 350.83 905.1 358.64 906.55 367.9C907.63 374.8 905.78 381.78 901.59 388.45C911.13 394.5 917.32 402.39 918.77 411.65C919.83 418.45 918.23 425.33 914.43 431.94C923.6 438.19 929.55 446.15 930.99 455.4C932.04 462.09 930.62 468.86 927.19 475.4C936.05 481.84 941.77 489.88 943.22 499.15C944.25 505.76 943.02 512.43 939.89 518.92C948.45 525.52 953.99 533.62 955.44 542.9C956.46 549.41 955.37 555.98 952.53 562.39C960.85 569.14 966.21 577.33 967.66 586.65C968.67 593.08 967.72 599.57 965.11 605.93C973.2 612.82 978.42 621.06 979.88 630.4C980.88 636.75 980.05 643.15 977.67 649.45C985.55 656.47 990.64 664.78 992.11 674.15C993.08 680.41 992.35 686.71 990.18 692.93C997.89 700.08 1002.86 708.49 1004.33 717.9C1005.3 724.09 1004.66 730.33 1002.67 736.48C1010.2 743.75 1015.07 752.21 1016.55 761.65ZM779.81 118.4C779.82 118.42 779.84 118.44 779.85 118.46C779.86 118.44 779.86 118.42 779.87 118.39C779.86 118.38 779.85 118.37 779.83 118.37C779.83 118.38 779.82 118.39 779.81 118.4ZM888.28 812.02C914.23 807.96 938.1 799.36 955.5 787.79C969.37 778.56 973.94 770.83 974.85 768.21C974.59 767.86 974.17 767.36 973.5 766.72C962.19 755.81 957.94 739.52 962.4 724.51C962.2 724.29 961.94 724.02 961.62 723.73C949.86 712.83 945.38 696.23 949.91 680.98C949.85 680.92 949.79 680.86 949.72 680.81C937.51 669.92 932.79 653.01 937.4 637.5C925.01 626.62 920.2 609.58 924.84 593.98C912.45 583.13 907.63 566.11 912.22 550.53C899.82 539.68 895 522.64 899.59 507.07C887.15 496.25 882.31 479.2 886.86 463.64C874.41 452.82 869.56 435.76 874.09 420.21C861.61 409.43 856.73 392.37 861.21 376.83C854.4 370.95 849.59 363 847.62 354.08C846.1 347.2 846.34 340.13 848.24 333.48C841.33 327.57 836.46 319.51 834.5 310.45C833.03 303.67 833.28 296.72 835.12 290.19C828.1 284.23 823.15 276.04 821.21 266.83C819.8 260.17 820.05 253.36 821.82 246.97C814.66 240.95 809.6 232.63 807.67 223.23C806.34 216.71 806.59 210.08 808.27 203.84C800.93 197.77 795.75 189.28 793.83 179.65C792.58 173.35 792.81 166.97 794.37 160.95C790.56 157.89 787.32 154.18 784.78 150C783.64 154.76 781.68 159.28 779 163.36C782.31 168.61 784.48 174.62 785.21 180.99C786.33 190.75 783.99 200.42 778.85 208.44C782.35 213.87 784.61 220.11 785.33 226.72C786.36 236.27 784.09 245.75 779.09 253.67C782.72 259.21 785.03 265.6 785.72 272.36C786.69 281.72 784.48 291.04 779.62 298.87C783.36 304.52 785.72 311.06 786.39 317.96C787.29 327.18 785.12 336.35 780.35 344.1C784.18 349.84 786.57 356.5 787.22 363.52C788.06 372.61 785.92 381.66 781.22 389.33C790.23 402.77 790.79 420.51 782.2 434.58C791.26 448.01 791.85 465.73 783.3 479.83C792.38 493.26 792.97 510.98 784.43 525.08C793.55 538.51 794.17 556.21 785.66 570.32C794.77 583.76 795.39 601.44 786.91 615.55C796.05 628.99 796.7 646.7 788.23 660.82C797.36 674.18 798.03 691.72 789.72 705.82C789.67 705.9 789.63 705.97 789.59 706.04C798.56 719.19 799.36 736.36 791.49 750.33C791.28 750.71 791.11 751.03 790.98 751.31C799.82 764.24 800.74 781.05 793.29 794.89C792.86 795.7 792.61 796.31 792.46 796.72C794.13 798.94 800.85 804.91 816.87 809.46C836.97 815.17 862.33 816.07 888.28 812.02Z" />
		<g id="Mask" clip-path="url(#cp2)">
			<path id="Path 27" class="shp11" d="M423.91 522.38L343.62 436.44L1128.4 -296.77L1208.69 -210.83L423.91 522.38Z" />
			<path id="Path 28" class="shp5" d="M504.2 608.31L423.91 522.38L1208.69 -210.83L1288.98 -124.9L504.2 608.31Z" />
			<path id="Path 29" class="shp4" d="M584.49 694.25L504.2 608.31L1288.98 -124.9L1369.27 -38.96L584.49 694.25Z" />
			<path id="Path 30" class="shp3" d="M664.78 780.18L584.49 694.25L1369.27 -38.96L1449.56 46.97L664.78 780.18Z" />
			<path id="Path 31" class="shp2" d="M745.07 866.12L664.78 780.18L1449.55 46.97L1529.84 132.91L745.07 866.12Z" />
			<path id="Path 32" class="shp1" d="M825.36 952.05L745.07 866.12L1529.84 132.91L1610.13 218.84L825.36 952.05Z" />
			<path id="Path 33" class="shp12" d="M905.64 1037.99L825.35 952.06L1610.13 218.84L1690.42 304.78L905.64 1037.99Z" />
		</g>
	</g>
</svg>